<svg width="20" height="20" viewBox="0 0 20 20" fill="none" xmlns="http://www.w3.org/2000/svg">
<path d="M9.99641 0C10.3159 0 10.6075 0.203125 10.7464 0.527344L13.1284 6.04688L18.4478 6.92969C18.7603 6.98047 19.0207 7.22656 19.1179 7.56641C19.2152 7.90625 19.1353 8.27344 18.9131 8.52344L15.0554 12.8281L15.9652 18.9062C16.0172 19.2578 15.8888 19.6133 15.6284 19.8242C15.3679 20.0352 15.0277 20.0586 14.7499 19.8906L9.99293 17.0312L5.24293 19.8867C4.96168 20.0547 4.62141 20.0312 4.36446 19.8203C4.10752 19.6094 3.97557 19.2539 4.02766 18.9023L4.93738 12.8242L1.07974 8.52344C0.854046 8.27344 0.777657 7.90234 0.874879 7.56641C0.972102 7.23047 1.23252 6.98437 1.54502 6.92969L6.86446 6.04688L9.24641 0.527344C9.38877 0.203125 9.67696 0 9.99641 0ZM9.99641 3.08594L8.17349 7.3125C8.05196 7.58984 7.81932 7.78516 7.54502 7.83203L3.43738 8.51172L6.42002 11.8359C6.61099 12.0508 6.70127 12.3555 6.65613 12.6562L5.95127 17.332L9.60405 15.1367C9.85057 14.9883 10.1457 14.9883 10.3888 15.1367L14.0415 17.332L13.3402 12.6602C13.295 12.3594 13.3818 12.0547 13.5763 11.8398L16.5589 8.51562L12.4513 7.83203C12.1804 7.78516 11.9443 7.59375 11.8228 7.3125L9.99641 3.08594Z" fill="#c1c1c1"/>
</svg>
