<svg width="20" height="20" viewBox="0 0 20 20" fill="none" xmlns="http://www.w3.org/2000/svg">
<path d="M11.0035 0.703125C10.8195 0.273438 10.4306 0 10.0035 0C9.57645 0 9.19103 0.273438 9.00353 0.703125L6.77089 5.87109L1.78478 6.69922C1.36812 6.76953 1.02089 7.09766 0.892422 7.54688C0.76395 7.99609 0.868116 8.49219 1.16673 8.82422L4.78478 12.8516L3.93062 18.543C3.86117 19.0117 4.03478 19.4883 4.37853 19.7656C4.72228 20.043 5.17714 20.0781 5.55214 19.8555L10.007 17.1797L14.4619 19.8555C14.8369 20.0781 15.2917 20.0469 15.6355 19.7656C15.9792 19.4844 16.1528 19.0117 16.0834 18.543L15.2258 12.8516L18.8438 8.82422C19.1424 8.49219 19.2501 7.99609 19.1181 7.54688C18.9862 7.09766 18.6424 6.76953 18.2258 6.69922L13.2362 5.87109L11.0035 0.703125Z" fill="#c1c1c1"/>
</svg>
